<svg width="42" height="43" viewBox="0 0 42 43" fill="none" xmlns="http://www.w3.org/2000/svg">
<path d="M11.7087 41.0833H5.83366C4.79489 41.0833 3.79867 40.6706 3.06416 39.9361C2.32964 39.2016 1.91699 38.2054 1.91699 37.1666V23.4583C1.91699 22.4195 2.32964 21.4233 3.06416 20.6888C3.79867 19.9543 4.79489 19.5416 5.83366 19.5416H11.7087M25.417 15.625V7.79163C25.417 6.23348 24.798 4.73915 23.6962 3.63737C22.5945 2.5356 21.1001 1.91663 19.542 1.91663L11.7087 19.5416V41.0833H33.7987C34.7432 41.094 35.6598 40.7629 36.3796 40.1511C37.0993 39.5394 37.5737 38.6881 37.7153 37.7541L40.4178 20.1291C40.503 19.5678 40.4652 18.9946 40.3069 18.4494C40.1486 17.9041 39.8736 17.3998 39.501 16.9713C39.1285 16.5429 38.6672 16.2006 38.1492 15.9681C37.6312 15.7356 37.0689 15.6185 36.5012 15.625H25.417Z" stroke="#F26440" stroke-width="3" stroke-linecap="round" stroke-linejoin="round"/>
</svg>
